<svg width="860" height="200" viewBox="0 0 860 200" xmlns="http://www.w3.org/2000/svg">
  <defs>
    <linearGradient id="bg" x1="0%" y1="0%" x2="100%" y2="100%">
      <stop offset="0%" style="stop-color:#0d1117"/>
      <stop offset="100%" style="stop-color:#161b22"/>
    </linearGradient>
    <linearGradient id="line" x1="0%" y1="0%" x2="100%" y2="0%">
      <stop offset="0%" style="stop-color:#534AB7;stop-opacity:0"/>
      <stop offset="30%" style="stop-color:#534AB7;stop-opacity:1"/>
      <stop offset="70%" style="stop-color:#7F77DD;stop-opacity:1"/>
      <stop offset="100%" style="stop-color:#7F77DD;stop-opacity:0"/>
    </linearGradient>
  </defs>
  <rect width="860" height="200" fill="url(#bg)" rx="12"/>
  <rect x="0" y="0" width="860" height="200" fill="none" stroke="#30363d" stroke-width="1" rx="12"/>
  <!-- grid dots -->
  <g opacity="0.07">
    <circle cx="40" cy="40" r="1.5" fill="#7F77DD"/>
    <circle cx="80" cy="40" r="1.5" fill="#7F77DD"/>
    <circle cx="120" cy="40" r="1.5" fill="#7F77DD"/>
    <circle cx="160" cy="40" r="1.5" fill="#7F77DD"/>
    <circle cx="40" cy="80" r="1.5" fill="#7F77DD"/>
    <circle cx="80" cy="80" r="1.5" fill="#7F77DD"/>
    <circle cx="120" cy="80" r="1.5" fill="#7F77DD"/>
    <circle cx="160" cy="80" r="1.5" fill="#7F77DD"/>
    <circle cx="40" cy="120" r="1.5" fill="#7F77DD"/>
    <circle cx="80" cy="120" r="1.5" fill="#7F77DD"/>
    <circle cx="120" cy="120" r="1.5" fill="#7F77DD"/>
    <circle cx="160" cy="120" r="1.5" fill="#7F77DD"/>
    <circle cx="40" cy="160" r="1.5" fill="#7F77DD"/>
    <circle cx="80" cy="160" r="1.5" fill="#7F77DD"/>
    <circle cx="120" cy="160" r="1.5" fill="#7F77DD"/>
    <circle cx="160" cy="160" r="1.5" fill="#7F77DD"/>
    <circle cx="700" cy="40" r="1.5" fill="#7F77DD"/>
    <circle cx="740" cy="40" r="1.5" fill="#7F77DD"/>
    <circle cx="780" cy="40" r="1.5" fill="#7F77DD"/>
    <circle cx="820" cy="40" r="1.5" fill="#7F77DD"/>
    <circle cx="700" cy="80" r="1.5" fill="#7F77DD"/>
    <circle cx="740" cy="80" r="1.5" fill="#7F77DD"/>
    <circle cx="780" cy="80" r="1.5" fill="#7F77DD"/>
    <circle cx="820" cy="80" r="1.5" fill="#7F77DD"/>
    <circle cx="700" cy="120" r="1.5" fill="#7F77DD"/>
    <circle cx="740" cy="120" r="1.5" fill="#7F77DD"/>
    <circle cx="780" cy="120" r="1.5" fill="#7F77DD"/>
    <circle cx="820" cy="120" r="1.5" fill="#7F77DD"/>
    <circle cx="700" cy="160" r="1.5" fill="#7F77DD"/>
    <circle cx="740" cy="160" r="1.5" fill="#7F77DD"/>
    <circle cx="780" cy="160" r="1.5" fill="#7F77DD"/>
    <circle cx="820" cy="160" r="1.5" fill="#7F77DD"/>
  </g>
  <!-- accent circle -->
  <circle cx="430" cy="100" r="140" fill="none" stroke="#534AB7" stroke-width="0.5" opacity="0.15"/>
  <circle cx="430" cy="100" r="100" fill="none" stroke="#534AB7" stroke-width="0.5" opacity="0.1"/>
  <!-- avatar circle -->
  <circle cx="430" cy="72" r="28" fill="#1c1f2e" stroke="#534AB7" stroke-width="1.5"/>
  <text x="430" y="78" text-anchor="middle" font-family="monospace" font-size="16" font-weight="700" fill="#7F77DD">RD</text>
  <!-- status dot -->
  <circle cx="452" cy="92" r="5" fill="#1D9E75"/>
  <circle cx="452" cy="92" r="3" fill="#1D9E75"/>
  <!-- name -->
  <text x="430" y="120" text-anchor="middle" font-family="-apple-system,BlinkMacSystemFont,Segoe UI,sans-serif" font-size="22" font-weight="700" fill="#e6edf3">Rubén Darío</text>
  <!-- role -->
  <text x="430" y="142" text-anchor="middle" font-family="-apple-system,BlinkMacSystemFont,Segoe UI,sans-serif" font-size="12" fill="#8b949e">Desarrollador Web &amp; Entusiasta de IA</text>
  <!-- location -->
  <text x="430" y="162" text-anchor="middle" font-family="-apple-system,BlinkMacSystemFont,Segoe UI,sans-serif" font-size="11" fill="#484f58">📍 Medellín, Colombia · 15 años</text>
  <!-- bottom line -->
  <rect x="130" y="185" width="600" height="1" fill="url(#line)"/>
  <!-- left tag -->
  <rect x="20" y="88" width="130" height="24" rx="4" fill="#1c1f2e" stroke="#30363d" stroke-width="0.5"/>
  <text x="85" y="104" text-anchor="middle" font-family="monospace" font-size="10" fill="#534AB7">{ AI &amp; Web Dev }</text>
  <!-- right tag -->
  <rect x="710" y="88" width="130" height="24" rx="4" fill="#1c1f2e" stroke="#30363d" stroke-width="0.5"/>
  <text x="775" y="104" text-anchor="middle" font-family="monospace" font-size="10" fill="#1D9E75">open_to_collab()</text>
</svg>
